<?xml version="1.0" ?><svg viewBox="0 0 60 60" xmlns="http://www.w3.org/2000/svg"><title/><g id="colour"><path d="M28,37.00281V44H18.21188l-3.701-5.6408C17.3953,37.41188,22.74011,36.95971,28,37.00281Z" fill="#455a65"/><path d="M43,43.5H28V37c4.9745.08008,9.71881.54081,12.20606,1.3921Z" fill="#455a65"/><path d="M28,38.64238V37.0023c-5.25989-.03534-10.60474.33544-13.48914,1.11229L15.61938,39.5A68.48063,68.48063,0,0,1,28,38.64238Z" fill="#52656d"/><path d="M40.20605,38.07084A60.70271,60.70271,0,0,0,28,37v1.53846A60.70271,60.70271,0,0,1,40.20605,39.6093Z" fill="#52656d"/><path d="M28,44V56H24.86311c-.37392-4.01454-4.90263-5.45455-8.80815-5.45455-3.86393,0-8.34079,1.41817-8.78736,5.34541l-4.19639-.88363V51.09091a.77076.77076,0,0,0-.02079-.15274L1.15991,44Z" fill="#27a8e2"/><path d="M44.75369,51.43317A5.03285,5.03285,0,0,0,41.72129,55.5H28.4722V44H42.94235C44.67221,46.73909,44.75369,48.58956,44.75369,51.43317Z" fill="#27a8e2"/><path d="M59,46.88764v3.71715l-.93211.903a.48306.48306,0,0,0-.16452.36756c0,1.92155,0,2.56212-3.32284,2.61461A4.86617,4.86617,0,0,0,49.6786,50.3003a15.60464,15.60464,0,0,0-4.93486.74549A12.1668,12.1668,0,0,0,43,44C48.95492,44.01051,54.97544,44.15747,59,46.88764Z" fill="#27a8e2"/><path d="M44.9989,44.00948,45,44H1.15991L2.495,46.219H44.3075l.00232.00564c5.46216.03363,10.83691.277,14.53027,2.13027V49L59,48.88542v-2.7495C55.4259,44.34253,50.27734,44.05661,44.9989,44.00948Z" fill="#45bce5"/><path d="M8.56995,53A4.8272,4.8272,0,0,0,7.2,55.85l-3.78-.75L3,55.01V53Z" fill="#008fb5"/><path d="M42.65991,53a4.56364,4.56364,0,0,0-1.01,2.5h-13.25V53Z" fill="#008fb5"/><path d="M27.92993,53v3h-3.14a4.80994,4.80994,0,0,0-1.38-3Z" fill="#008fb5"/><path d="M58,52c-.13,1.06-.93005,2.45-3.49,2.49A15.59671,15.59671,0,0,0,53,52Z" fill="#008fb5"/><path d="M18,44H12.2009a6.73914,6.73914,0,0,0,2.40885-4.49Z" fill="#384951"/><polygon fill="#384951" points="42.553 42 17.064 42 18 44 42.553 44 42.553 42"/><circle cx="16" cy="55" fill="#aaa" r="4"/><circle cx="50" cy="55" fill="#aaa" r="4"/><path d="M17.64038,51.35962a3.98591,3.98591,0,0,1-5.28076,5.28082,3.99528,3.99528,0,1,0,5.28076-5.28082Z" fill="#999"/><path d="M51.64038,51.35962a3.98591,3.98591,0,0,1-5.28076,5.28082,3.99528,3.99528,0,1,0,5.28076-5.28082Z" fill="#999"/></g><g data-name="Layer 1" id="Layer_1"><path d="M33,47H32a1,1,0,0,0,0,2h1a1,1,0,0,0,0-2Z"/><path d="M59.59961,46.2002c-4.03076-3.024-9.85034-3.18976-15.595-3.19928L44,43h-.38184l-2.72363-5.44727a1.00073,1.00073,0,0,0-.52344-.48145c-5.248-2.09961-21.49414-2.09961-26.74219,0A1.00046,1.00046,0,0,0,13,38c0,3.28223-1.50879,5-3,5H1a.99947.99947,0,0,0-.96191,1.27441L2,51.13965V55a1.00066,1.00066,0,0,0,.80371.98047l5,1A1.02905,1.02905,0,0,0,8,57a1.00013,1.00013,0,0,0,1-1,3.48854,3.48854,0,0,1,2.53528-3.205A4.93728,4.93728,0,0,0,11,55a5,5,0,0,0,10,0,4.93728,4.93728,0,0,0-.53528-2.205A3.48854,3.48854,0,0,1,23,56a.99942.99942,0,0,0,1,1H42a.99942.99942,0,0,0,1-1,3.48854,3.48854,0,0,1,2.53528-3.205A4.93728,4.93728,0,0,0,45,55a4.99868,4.99868,0,0,0,9.90112.97748c3.304-.15668,4.02466-1.23785,4.093-3.55756L59.707,51.707A.99928.99928,0,0,0,60,51V47A.99948.99948,0,0,0,59.59961,46.2002ZM41.382,43H29V37.53662c4.18774.10132,8.1311.52216,10.28223,1.26318Zm-22.8468,0-2.9624-4.44348A51.24644,51.24644,0,0,1,27,37.5144V43ZM14.637,40.75818,16.13159,43H13.60425A6.85425,6.85425,0,0,0,14.637,40.75818ZM19,55a3,3,0,1,1-3-3A3.00328,3.00328,0,0,1,19,55Zm-3-5c-3.75488,0-8.07812,1.28516-8.87207,4.80566L4,54.18066V51a1.00084,1.00084,0,0,0-.03809-.27441L3.469,49H5a1,1,0,0,0,0-2H2.89746l-.57129-2H27V55H24.91113C24.23535,51.332,19.82227,50,16,50Zm25.08887,5H29V45H42.44031a10.48922,10.48922,0,0,1,1.55737,6.31763A5.25506,5.25506,0,0,0,41.08887,55ZM50,58a3,3,0,1,1,3-3A3.00328,3.00328,0,0,1,50,58Zm7.293-6.707A.99928.99928,0,0,0,57,52c0,1.5733-.00513,1.92871-2.10327,1.98883A5.00858,5.00858,0,0,0,50,50a15.01044,15.01044,0,0,0-4.01416.52942,11.83305,11.83305,0,0,0-1.251-5.52594c4.55823.02246,9.08472.22546,12.394,1.99652H57a1,1,0,0,0,0,2h1v1.58594Z"/></g></svg>